<?xml version="1.0" encoding="UTF-8"?>
<!DOCTYPE svg PUBLIC "-//W3C//DTD SVG 1.1//EN" "http://www.w3.org/Graphics/SVG/1.1/DTD/svg11.dtd">
<!-- Creator: CorelDRAW -->
<svg xmlns="http://www.w3.org/2000/svg" xml:space="preserve" width="850px" height="850px" style="shape-rendering:geometricPrecision; text-rendering:geometricPrecision; image-rendering:optimizeQuality; fill-rule:evenodd; clip-rule:evenodd"
viewBox="0 0 850 850"
 xmlns:xlink="http://www.w3.org/1999/xlink">
 <defs>
  <style type="text/css">
   <![CDATA[
    .fil2 {fill:#666666}
    .fil0 {fill:#CFCFCF}
    .fil1 {fill:url(#id0)}
   ]]>
  </style>
  <linearGradient id="id0" gradientUnits="userSpaceOnUse" x1="32.4449" y1="425" x2="817.555" y2="425">
   <stop offset="0" style="stop-color:white"/>
   <stop offset="1" style="stop-color:#E6E6E6"/>
  </linearGradient>
 </defs>
 <g id="Layer_x0020_1">
  <metadata id="CorelCorpID_0Corel-Layer"/>
  <g id="_737245600">
   <path id="_737229064" class="fil0" d="M425 -0.0011811c234.721,0 425.001,190.28 425.001,425.001 0,234.721 -190.28,425.001 -425.001,425.001 -234.721,0 -425.001,-190.28 -425.001,-425.001 0,-234.721 190.28,-425.001 425.001,-425.001z"/>
   <path id="_737242672" class="fil1" d="M425 32.4449c216.802,0 392.555,175.753 392.555,392.555 0,216.802 -175.753,392.555 -392.555,392.555 -216.802,0 -392.555,-175.753 -392.555,-392.555 0,-216.802 175.753,-392.555 392.555,-392.555z"/>
  </g>
  <path class="fil2" d="M553.691 681.131l-258.213 0c-29.9859,0 -54.1418,-24.1559 -54.1418,-54.143l0 -46.6441 66.2197 0c3.74764,0 7.07953,-3.33189 7.49528,-7.07953l0.0011811 -118.278c0,-4.16457 -3.33189,-7.49764 -7.49646,-7.49764l-66.2197 0 0 -91.6229c0,-4.16457 3.33189,-7.49646 7.49646,-7.49646l352.335 0c4.16457,0 7.49764,3.33189 7.49764,7.49646l0 93.2895 -67.0524 0c-4.16457,0 -7.49646,3.33189 -7.49646,7.49646l0 117.862c0,4.16457 3.33189,7.49646 7.49646,7.49646l67.0524 0 0 44.9776c-0.41693,29.987 -24.9898,54.143 -54.9745,54.143zm-98.7048 -63.3036l-60.3886 0c-4.16457,0 -7.49646,-3.33189 -7.49646,-7.49646l0 -77.8808c-17.9079,-12.078 -28.7362,-32.902 -28.7362,-54.1418 0,-36.2339 29.5689,-66.2197 66.2186,-66.2197 36.2327,0 66.2186,29.5701 66.2186,66.2197 0,21.6555 -10.8284,42.0638 -28.3205,54.1418l0.0011811 78.2965c-0.41693,3.74882 -3.74764,7.08072 -7.49646,7.08072zm-52.8922 -14.5772l45.8126 0 0 -74.9646c0,-2.49921 1.24843,-4.99843 3.74764,-6.24804 15.4099,-9.16182 24.9874,-26.237 24.9874,-44.1449 0,-28.7374 -22.4894,-51.6426 -51.6414,-51.6426 -28.3205,0 -51.6426,22.9063 -51.6426,51.6426 0,17.9079 9.57875,34.9831 25.4044,44.1449 2.08347,1.24961 3.74764,3.74764 3.74764,6.24804l0.0011811 74.9646 -0.41693 0zm-160.758 -37.4823l0 -14.9929 31.2355 0c4.16457,0 7.49646,-3.33189 7.49646,-7.49646 0,-4.16457 -3.33189,-7.49646 -7.49646,-7.49646l-31.2355 0 0 -14.576 31.2355 0c4.16457,0 7.49646,-3.33307 7.49646,-7.49764 0,-4.16339 -3.33189,-7.49646 -7.49646,-7.49646l-31.2355 0 0 -13.7433 31.2355 0c4.16457,0 7.49646,-3.33189 7.49646,-7.49646 0,-4.16457 -3.33189,-7.49646 -7.49646,-7.49646l-31.2355 0 0 -14.9929 58.7233 0 0 103.285 -58.7233 0zm307.773 1.66654l59.139 0 0 -15.4099 -31.2355 0c-4.16457,0 -7.49646,-3.33189 -7.49646,-7.49646 0,-4.16457 3.33189,-7.49646 7.49646,-7.49646l31.2355 0 0 -14.1602 -31.2355 0c-4.16457,0 -7.49646,-3.33189 -7.49646,-7.49646 0,-4.16457 3.33189,-7.49646 7.49646,-7.49646l31.2355 0 0 -14.1602 -31.2355 0c-4.16457,0 -7.49646,-3.33307 -7.49646,-7.49646 0,-4.16457 3.33189,-7.49764 7.49646,-7.49764l31.2355 0 0 -14.576 -59.139 0 0 103.286z"/>
  <path class="fil2" d="M493.301 291.728l0 -7.49528c0,-34.1504 -27.9036,-62.054 -62.4709,-62.054l-13.3264 -0.0011811c-34.1516,0 -62.0552,27.9036 -62.0552,62.054l0 50.1378 -53.7249 0 0 -50.1367c0,-63.7194 51.6426,-115.362 115.363,-115.362l14.1602 -0.0011811c63.7205,0 115.362,51.6426 115.362,115.362l0 7.49646 -53.3079 0z"/>
 </g>
</svg>
